<?xml version="1.0" standalone="no"?>
<!DOCTYPE svg PUBLIC "-//W3C//DTD SVG 20010904//EN"
 "http://www.w3.org/TR/2001/REC-SVG-20010904/DTD/svg10.dtd">
<svg version="1.0" xmlns="http://www.w3.org/2000/svg"
 width="500.000000pt" height="500.000000pt" viewBox="0 0 500.000000 500.000000"
 preserveAspectRatio="xMidYMid meet">

<g transform="translate(0.000000,500.000000) scale(0.100000,-0.100000)"
fill="#000000" stroke="none">
<path d="M963 2830 c-75 -18 -114 -72 -97 -137 17 -66 46 -78 202 -81 165 -3
182 -6 182 -32 0 -19 -7 -20 -159 -20 l-159 0 -42 -50 -42 -50 206 0 c222 0
258 6 290 51 9 14 16 43 16 69 0 37 -5 52 -26 71 -24 23 -33 24 -167 27 -175
3 -189 6 -185 35 3 21 7 22 150 25 l147 3 36 43 c19 24 35 46 35 50 0 9 -348
6 -387 -4z"/>
<path d="M1633 2825 c-11 -8 -77 -93 -147 -190 l-126 -176 72 3 72 3 82 115
c45 63 86 116 91 117 6 2 87 -109 101 -139 2 -3 -32 -4 -75 -1 l-78 5 -34 -46
c-18 -26 -31 -49 -29 -52 3 -2 99 -3 215 -2 l210 3 -119 170 c-65 94 -128 178
-139 188 -26 21 -67 22 -96 2z"/>
<path d="M1887 2827 c4 -8 62 -91 128 -185 77 -111 129 -175 146 -182 33 -14
72 -5 96 23 19 21 231 317 247 345 5 9 -9 12 -61 12 l-68 0 -89 -127 c-86
-121 -90 -125 -105 -106 -9 11 -49 68 -89 127 l-72 106 -71 0 c-56 0 -68 -3
-62 -13z"/>
<path d="M2653 2825 c-13 -9 -79 -94 -148 -190 l-125 -175 70 0 69 0 86 120
c47 66 89 120 93 120 6 0 90 -120 100 -142 2 -4 -32 -5 -75 -1 l-78 5 -32 -45
c-18 -25 -33 -48 -33 -51 0 -3 97 -6 215 -6 l214 0 -115 168 c-64 92 -127 177
-141 190 -28 26 -69 29 -100 7z"/>
<path d="M3070 2820 c-18 -18 -20 -33 -20 -190 l0 -170 55 0 54 0 3 106 3 106
120 -106 c66 -59 130 -109 143 -113 13 -3 33 2 47 11 l25 16 0 180 0 180 -50
0 -50 0 0 -110 c0 -60 -3 -110 -6 -110 -3 0 -61 50 -130 110 -132 117 -156
128 -194 90z"/>
<path d="M3803 2825 c-13 -9 -79 -94 -148 -190 l-125 -175 70 0 69 0 86 120
c48 66 91 118 96 115 8 -5 71 -95 93 -132 5 -10 -11 -11 -71 -7 l-78 6 -38
-51 -37 -51 219 0 220 0 -125 180 c-69 99 -134 185 -144 190 -27 14 -62 12
-87 -5z"/>
<path d="M834 2311 c-2 -2 -1 -8 2 -12 8 -13 3314 -12 3314 1 0 6 -3 10 -7 10
-745 3 -3306 4 -3309 1z"/>
<path d="M1830 2145 c0 -5 -3 -21 -7 -35 l-6 -25 19 23 c12 15 34 25 62 29
l42 6 0 -137 c0 -132 -1 -137 -22 -146 -17 -6 -7 -9 42 -9 49 0 59 3 43 9 -22
9 -23 14 -23 145 l0 135 28 0 c45 0 69 -11 79 -33 9 -20 11 -19 14 13 l4 35
-137 0 c-85 0 -138 -4 -138 -10z"/>
<path d="M1344 2142 c-6 -4 -33 -65 -61 -137 -38 -98 -56 -133 -74 -142 -22
-12 -20 -13 26 -13 33 0 45 3 36 9 -12 8 -12 16 -1 55 l13 46 48 0 c47 0 49
-2 64 -36 19 -47 19 -62 -2 -67 -10 -3 9 -5 42 -5 49 -1 56 1 38 10 -16 8 -34
45 -70 149 -30 85 -53 135 -59 131z m15 -108 c7 -26 10 -48 7 -51 -2 -2 -20
-3 -39 -1 l-34 3 20 52 c11 29 23 51 27 48 4 -3 13 -26 19 -51z"/>
<path d="M1507 2140 c19 -8 21 -17 25 -114 2 -87 6 -109 24 -133 27 -36 80
-50 133 -35 60 19 75 49 79 170 4 94 6 104 26 112 16 7 7 9 -34 9 -53 1 -54 1
-31 -15 22 -16 23 -21 19 -116 -3 -95 -4 -101 -31 -124 -27 -23 -68 -31 -102
-18 -32 13 -45 59 -45 159 0 90 1 96 23 105 16 6 6 9 -43 9 -47 0 -59 -3 -43
-9z"/>
<path d="M2223 2139 c-39 -11 -79 -57 -92 -106 -15 -52 2 -104 44 -142 65 -57
155 -54 216 8 49 48 59 97 33 160 -30 73 -112 106 -201 80z m132 -40 c26 -25
30 -37 33 -98 4 -64 2 -70 -26 -102 -24 -27 -37 -34 -69 -34 -75 0 -123 57
-123 145 0 114 107 165 185 89z"/>
<path d="M2490 2140 c0 -5 7 -10 15 -10 13 0 15 -21 15 -130 0 -112 -2 -130
-17 -139 -14 -8 -3 -10 42 -10 46 0 55 2 38 9 -22 9 -23 14 -23 139 0 72 4
132 10 136 19 12 61 -8 76 -36 20 -39 9 -76 -30 -101 l-31 -20 30 7 c44 9 72
30 79 59 10 39 -10 75 -49 91 -39 17 -155 20 -155 5z"/>
<path d="M2748 2134 c21 -14 22 -22 22 -132 0 -119 -4 -135 -30 -145 -8 -3 35
-6 97 -6 l111 -1 11 30 c12 37 9 37 -24 4 -23 -23 -33 -26 -71 -21 -25 2 -48
8 -52 11 -4 4 -7 33 -7 64 l0 57 37 3 c28 2 40 -2 52 -20 16 -22 16 -21 16 27
0 41 -2 46 -12 33 -16 -19 -68 -31 -86 -20 -9 6 -12 27 -10 63 l3 54 42 3 c36
3 47 -1 68 -24 18 -19 25 -22 25 -11 0 44 -8 47 -113 47 -95 0 -100 -1 -79
-16z"/>
<path d="M3108 2141 c-96 -31 -138 -136 -88 -219 20 -33 86 -71 123 -72 14 0
16 -4 7 -19 -7 -13 -7 -22 0 -26 5 -3 10 -13 10 -21 0 -11 -6 -13 -20 -9 -11
4 -20 2 -20 -4 0 -16 46 -13 59 3 9 11 9 20 2 35 -18 32 -13 38 33 45 38 6 46
12 55 36 12 36 9 37 -23 5 -36 -36 -71 -41 -124 -19 -110 46 -110 210 1 253
49 18 105 3 129 -36 l17 -28 1 32 c0 17 -5 35 -11 38 -17 11 -122 15 -151 6z"/>
<path d="M3434 2142 c-6 -4 -33 -65 -61 -137 -38 -98 -56 -133 -74 -142 -22
-12 -20 -13 26 -12 28 0 44 3 38 6 -16 6 -16 27 -1 70 11 31 15 33 61 33 45 0
49 -2 63 -35 19 -45 18 -63 -3 -68 -10 -3 9 -5 42 -6 49 0 56 2 40 11 -11 6
-21 12 -23 13 -2 2 -24 64 -50 138 -29 83 -52 133 -58 129z m22 -136 c6 -25 4
-26 -35 -26 l-41 0 20 50 c11 28 20 54 21 58 1 10 27 -50 35 -82z"/>
<path d="M3652 2140 c-28 -12 -46 -51 -38 -84 4 -16 27 -41 56 -62 57 -41 74
-66 65 -95 -15 -45 -87 -44 -119 3 l-16 22 0 -27 c0 -68 149 -59 166 10 11 43
-8 76 -64 112 -63 41 -77 75 -42 103 30 24 46 23 76 -7 31 -31 32 -31 27 -1
-7 34 -60 46 -111 26z"/>
</g>
</svg>
